{
  "source": "C:\\Users\\Peter\\Desktop\\stuff\\MIUN\\quantitative_research\\video_compression\\videos\\BVI-HD\\BVI-HD_CDVL_videos\\ORIG\\BricksLeaves_1920x1080_60fps.mp4",
  "output": "C:\\Users\\Peter\\Desktop\\stuff\\MIUN\\quantitative_research\\video_compression\\compressed_videos\\BVI-HD\\h264\\3\\BricksLeaves_1920x1080_60fps_h264.mp4",
  "codec": "h264",
  "ok": "Input #0, mov,mp4,m4a,3gp,3g2,mj2, from 'C:\\Users\\Peter\\Desktop\\stuff\\MIUN\\quantitative_research\\video_compression\\videos\\BVI-HD\\BVI-HD_CDVL_videos\\ORIG\\BricksLeaves_1920x1080_60fps.mp4':\n  Metadata:\n    major_brand     : isom\n    minor_version   : 512\n    compatible_brands: isomiso2avc1mp41\n    encoder         : Lavf54.28.101\n  Duration: 00:00:05.00, start: 0.000000, bitrate: 524627 kb/s\n  Stream #0:0[0x1](und): Video: h264 (High 4:4:4 Predictive) (avc1 / 0x31637661), yuv420p(progressive), 1920x1080, 524622 kb/s, 60 fps, 60 tbr, 60 tbn (default)\n    Metadata:\n      handler_name    : VideoHandler\n      vendor_id       : [0][0][0][0]\n[out#0/mp4 @ 0000026a46289b40] Codec AVOption b:a (set bitrate (in bits/s)) has not been used for any stream. The most likely reason is either wrong type (e.g. a video option with no video streams) or that it is a private option of some decoder which was not actually used for any stream.\nStream mapping:\n  Stream #0:0 -> #0:0 (h264 (native) -> h264 (libx264))\nPress [q] to stop, [?] for help\n[libx264 @ 0000026a46e20300] using cpu capabilities: MMX2 SSE2Fast SSSE3 SSE4.2 AVX FMA3 BMI2 AVX2\n[libx264 @ 0000026a46e20300] profile High, level 5.0, 4:2:0, 8-bit\n[libx264 @ 0000026a46e20300] 264 - core 165 r3222 b35605a - H.264/MPEG-4 AVC codec - Copyleft 2003-2025 - http://www.videolan.org/x264.html - options: cabac=1 ref=5 deblock=1:0:0 analyse=0x3:0x113 me=hex subme=8 psy=1 psy_rd=1.00:0.00 mixed_ref=1 me_range=16 chroma_me=1 trellis=2 8x8dct=1 cqm=0 deadzone=21,11 fast_pskip=1 chroma_qp_offset=-2 threads=18 lookahead_threads=3 sliced_threads=0 nr=0 decimate=1 interlaced=0 bluray_compat=0 constrained_intra=0 bframes=3 b_pyramid=2 b_adapt=1 b_bias=0 direct=3 weightb=1 open_gop=0 weightp=2 keyint=250 keyint_min=25 scenecut=40 intra_refresh=0 rc_lookahead=50 rc=cbr mbtree=1 bitrate=3000 ratetol=1.0 qcomp=0.60 qpmin=0 qpmax=69 qpstep=4 vbv_maxrate=3000 vbv_bufsize=3000 nal_hrd=none filler=0 ip_ratio=1.40 aq=1:1.00\nOutput #0, mp4, to 'C:\\Users\\Peter\\Desktop\\stuff\\MIUN\\quantitative_research\\video_compression\\compressed_videos\\BVI-HD\\h264\\3\\BricksLeaves_1920x1080_60fps_h264.mp4':\n  Metadata:\n    major_brand     : isom\n    minor_version   : 512\n    compatible_brands: isomiso2avc1mp41\n    encoder         : Lavf62.3.100\n  Stream #0:0(und): Video: h264 (avc1 / 0x31637661), yuv420p(tv, progressive), 1920x1080, q=2-31, 3000 kb/s, 60 fps, 15360 tbn (default)\n    Metadata:\n      encoder         : Lavc62.11.100 libx264\n      handler_name    : VideoHandler\n      vendor_id       : [0][0][0][0]\n    Side data:\n      cpb: bitrate max/min/avg: 3000000/0/3000000 buffer size: 3000000 vbv_delay: N/A\nframe=    0 fps=0.0 q=0.0 size=       0KiB time=N/A bitrate=N/A speed=N/A elapsed=0:00:01.17    \nframe=    0 fps=0.0 q=0.0 size=       0KiB time=N/A bitrate=N/A speed=N/A elapsed=0:00:01.74    \nframe=   20 fps=8.5 q=41.0 size=       0KiB time=00:00:00.30 bitrate=   1.3kbits/s speed=0.128x elapsed=0:00:02.34    \nframe=   48 fps= 17 q=40.0 size=       0KiB time=00:00:00.73 bitrate=   0.5kbits/s speed=0.252x elapsed=0:00:02.90    \nframe=   74 fps= 21 q=40.0 size=     256KiB time=00:00:01.20 bitrate=1747.9kbits/s speed=0.344x elapsed=0:00:03.49    \nframe=  100 fps= 25 q=40.0 size=     512KiB time=00:00:01.63 bitrate=2568.2kbits/s speed=0.403x elapsed=0:00:04.05    \nframe=  121 fps= 26 q=40.0 size=     512KiB time=00:00:01.98 bitrate=2115.0kbits/s speed=0.431x elapsed=0:00:04.60    \nframe=  147 fps= 29 q=40.0 size=     768KiB time=00:00:02.40 bitrate=2621.6kbits/s speed=0.467x elapsed=0:00:05.14    \nframe=  174 fps= 31 q=40.0 size=     768KiB time=00:00:02.85 bitrate=2207.7kbits/s speed= 0.5x elapsed=0:00:05.70    \nframe=  200 fps= 32 q=41.0 size=    1024KiB time=00:00:03.30 bitrate=2542.1kbits/s speed=0.529x elapsed=0:00:06.23    \nframe=  224 fps= 33 q=43.0 size=    1024KiB time=00:00:03.70 bitrate=2267.3kbits/s speed=0.544x elapsed=0:00:06.79    \nframe=  250 fps= 34 q=46.0 size=    1280KiB time=00:00:04.13 bitrate=2537.0kbits/s speed=0.562x elapsed=0:00:07.35    \nframe=  268 fps= 34 q=47.0 size=    1536KiB time=00:00:04.43 bitrate=2838.3kbits/s speed=0.556x elapsed=0:00:07.97    \nframe=  296 fps= 35 q=-1.0 size=    1536KiB time=00:00:04.90 bitrate=2568.0kbits/s speed=0.571x elapsed=0:00:08.57    \n[mp4 @ 0000026a46317ac0] Starting second pass: moving the moov atom to the beginning of the file\n[out#0/mp4 @ 0000026a46289b40] video:1812KiB audio:0KiB subtitle:0KiB other streams:0KiB global headers:0KiB muxing overhead: 0.240995%\nframe=  300 fps= 35 q=-1.0 Lsize=    1816KiB time=00:00:04.96 bitrate=2995.5kbits/s speed=0.577x elapsed=0:00:08.60    \n[libx264 @ 0000026a46e20300] frame I:2     Avg QP:38.90  size:112438\n[libx264 @ 0000026a46e20300] frame P:76    Avg QP:40.80  size:  9880\n[libx264 @ 0000026a46e20300] frame B:222   Avg QP:46.22  size:  3958\n[libx264 @ 0000026a46e20300] consecutive B-frames:  1.3%  0.0%  0.0% 98.7%\n[libx264 @ 0000026a46e20300] mb I  I16..4:  3.6% 86.2% 10.2%\n[libx264 @ 0000026a46e20300] mb P  I16..4:  1.2%  2.8%  0.0%  P16..4: 20.1%  3.0%  3.6%  0.0%  0.0%    skip:69.3%\n[libx264 @ 0000026a46e20300] mb B  I16..4:  0.2%  0.4%  0.0%  B16..8: 14.3%  1.8%  0.3%  direct: 1.4%  skip:81.6%  L0:52.0% L1:44.8% BI: 3.2%\n[libx264 @ 0000026a46e20300] 8x8 transform intra:75.9% inter:91.6%\n[libx264 @ 0000026a46e20300] direct mvs  spatial:95.5% temporal:4.5%\n[libx264 @ 0000026a46e20300] coded y,uvDC,uvAC intra: 51.3% 50.6% 6.4% inter: 4.6% 4.3% 0.0%\n[libx264 @ 0000026a46e20300] i16 v,h,dc,p: 20% 25% 10% 44%\n[libx264 @ 0000026a46e20300] i8 v,h,dc,ddl,ddr,vr,hd,vl,hu:  7%  8%  9% 11% 12% 11% 15% 12% 15%\n[libx264 @ 0000026a46e20300] i4 v,h,dc,ddl,ddr,vr,hd,vl,hu:  4%  7%  2% 11% 12% 13% 17% 12% 22%\n[libx264 @ 0000026a46e20300] i8c dc,h,v,p: 68% 17% 10%  5%\n[libx264 @ 0000026a46e20300] Weighted P-Frames: Y:0.0% UV:0.0%\n[libx264 @ 0000026a46e20300] ref P L0: 44.0%  7.4% 23.2% 12.5% 12.9%\n[libx264 @ 0000026a46e20300] ref B L0: 65.4% 19.6% 11.4%  3.6%\n[libx264 @ 0000026a46e20300] ref B L1: 86.8% 13.2%\n[libx264 @ 0000026a46e20300] kb/s:2967.14\n",
  "seconds": 9.014861106872559,
  "probe_out": {}
}